<svg xmlns="http://www.w3.org/2000/svg" viewBox="0 0 880 980" font-family="'Geist',system-ui,sans-serif" role="img" aria-labelledby="fs-title fs-desc">
  <title id="fs-title">Freelance File Structure</title>
  <desc id="fs-desc">Client folder organised by function. Branch A (existing site) has no build/ folder. Branch B (no site) includes build/ with the handoff bundle.</desc>
  <style>svg { color-scheme: light only; }</style>
  <rect width="880" height="980" fill="#f5f5f5"/>

  <!-- Title -->
  <text x="40" y="36" fill="#2d3142" font-size="16" font-weight="600">klien/&lt;slug&gt;/</text>
  <text x="196" y="36" fill="#7a8399" font-size="10" font-family="'Geist Mono',monospace">Per-client folder — also the Obsidian vault root</text>

  <line x1="56" y1="52" x2="56" y2="936" stroke="#bfc0c0" stroke-width="1"/>

  <!-- 00-index.md -->
  <line x1="56" y1="56" x2="72" y2="56" stroke="#bfc0c0" stroke-width="1"/>
  <rect x="72" y="44" width="200" height="28" rx="4" fill="#ffffff" stroke="#bfc0c0" stroke-width="1"/>
  <text x="88" y="62" fill="#2d3142" font-size="10" font-weight="600">00-index.md</text>
  <rect x="280" y="44" width="44" height="28" rx="3" fill="#e8f0fe" stroke="#4a69bd" stroke-width="1"/>
  <text x="302" y="62" fill="#4a69bd" font-size="8" font-family="'Geist Mono',monospace" text-anchor="middle">init</text>
  <text x="336" y="62" fill="#7a8399" font-size="9" font-family="'Geist Mono',monospace">Vault hub — the only index, links everything</text>

  <!-- overview.html + overview.md -->
  <line x1="56" y1="88" x2="72" y2="88" stroke="#bfc0c0" stroke-width="1"/>
  <rect x="72" y="76" width="200" height="28" rx="4" fill="#ffffff" stroke="#bfc0c0" stroke-width="1"/>
  <text x="88" y="94" fill="#2d3142" font-size="10" font-weight="600">overview.html + overview.md</text>
  <rect x="280" y="76" width="80" height="28" rx="3" fill="#e8f0fe" stroke="#4a69bd" stroke-width="1"/>
  <text x="320" y="94" fill="#4a69bd" font-size="8" font-family="'Geist Mono',monospace" text-anchor="middle">init / audit</text>
  <text x="372" y="94" fill="#7a8399" font-size="9" font-family="'Geist Mono',monospace">Client presentation — updated by init, audit, reaudit, project-fix</text>

  <!-- build/ (Branch B only) -->
  <line x1="56" y1="120" x2="72" y2="120" stroke="#bfc0c0" stroke-width="1"/>
  <rect x="72" y="108" width="280" height="28" rx="4" fill="#ece9fb" stroke="#6c5ce7" stroke-width="1"/>
  <text x="88" y="126" fill="#4b3fbf" font-size="10" font-weight="600">build/ (Branch B only)</text>
  <rect x="360" y="108" width="80" height="28" rx="3" fill="#ece9fb" stroke="#6c5ce7" stroke-width="1"/>
  <text x="400" y="126" fill="#4b3fbf" font-size="8" font-family="'Geist Mono',monospace" text-anchor="middle">hand off</text>
  <text x="452" y="126" fill="#7a8399" font-size="9" font-family="'Geist Mono',monospace">The handoff bundle — hand this folder over to a builder</text>

  <line x1="88" y1="136" x2="88" y2="424" stroke="#bfc0c0" stroke-width="1"/>

  <line x1="88" y1="152" x2="104" y2="152" stroke="#bfc0c0" stroke-width="1"/>
  <rect x="104" y="140" width="200" height="28" rx="4" fill="#ffffff" stroke="#bfc0c0" stroke-width="1"/>
  <text x="120" y="158" fill="#2d3142" font-size="10" font-weight="600">01-brief.md</text>
  <text x="320" y="158" fill="#7a8399" font-size="9" font-family="'Geist Mono',monospace">Business, goals, audience, offer</text>

  <line x1="88" y1="184" x2="104" y2="184" stroke="#bfc0c0" stroke-width="1"/>
  <rect x="104" y="172" width="200" height="28" rx="4" fill="#ffffff" stroke="#bfc0c0" stroke-width="1"/>
  <text x="120" y="190" fill="#2d3142" font-size="10" font-weight="600">02-brand.md</text>
  <text x="320" y="190" fill="#7a8399" font-size="9" font-family="'Geist Mono',monospace">Voice, tone, personality</text>

  <line x1="88" y1="216" x2="104" y2="216" stroke="#bfc0c0" stroke-width="1"/>
  <rect x="104" y="204" width="200" height="28" rx="4" fill="#ffffff" stroke="#bfc0c0" stroke-width="1"/>
  <text x="120" y="222" fill="#2d3142" font-size="10" font-weight="600">03-design-tokens.md</text>
  <text x="320" y="222" fill="#7a8399" font-size="9" font-family="'Geist Mono',monospace">Visual direction + colour, type, spacing</text>

  <line x1="88" y1="248" x2="104" y2="248" stroke="#bfc0c0" stroke-width="1"/>
  <rect x="104" y="236" width="200" height="28" rx="4" fill="#ffffff" stroke="#bfc0c0" stroke-width="1"/>
  <text x="120" y="254" fill="#2d3142" font-size="10" font-weight="600">04-sitemap.md</text>
  <text x="320" y="254" fill="#7a8399" font-size="9" font-family="'Geist Mono',monospace">Pages, hierarchy, CTA per page</text>

  <line x1="88" y1="280" x2="104" y2="280" stroke="#bfc0c0" stroke-width="1"/>
  <rect x="104" y="268" width="200" height="28" rx="4" fill="#d9f2f0" stroke="#16a085" stroke-width="1"/>
  <text x="120" y="286" fill="#0e7a67" font-size="10" font-weight="600">05-layout.md</text>
  <rect x="312" y="268" width="72" height="28" rx="3" fill="#d9f2f0" stroke="#16a085" stroke-width="1"/>
  <text x="348" y="286" fill="#0e7a67" font-size="8" font-family="'Geist Mono',monospace" text-anchor="middle">hierarchy</text>
  <text x="396" y="286" fill="#7a8399" font-size="9" font-family="'Geist Mono',monospace">Section order, visual weight, text budget</text>

  <line x1="88" y1="312" x2="104" y2="312" stroke="#bfc0c0" stroke-width="1"/>
  <rect x="104" y="300" width="200" height="28" rx="4" fill="#ffffff" stroke="#bfc0c0" stroke-width="1"/>
  <text x="120" y="318" fill="#2d3142" font-size="10" font-weight="600">06-content/</text>
  <text x="320" y="318" fill="#7a8399" font-size="9" font-family="'Geist Mono',monospace">Copy per page, within the budget</text>

  <line x1="88" y1="344" x2="104" y2="344" stroke="#bfc0c0" stroke-width="1"/>
  <rect x="104" y="332" width="200" height="28" rx="4" fill="#ffffff" stroke="#bfc0c0" stroke-width="1"/>
  <text x="120" y="350" fill="#2d3142" font-size="10" font-weight="600">07-tech-spec.md</text>
  <text x="320" y="350" fill="#7a8399" font-size="9" font-family="'Geist Mono',monospace">Stack, CMS, components, integrations</text>

  <line x1="88" y1="376" x2="104" y2="376" stroke="#bfc0c0" stroke-width="1"/>
  <rect x="104" y="364" width="200" height="28" rx="4" fill="#ffffff" stroke="#bfc0c0" stroke-width="1"/>
  <text x="120" y="382" fill="#2d3142" font-size="10" font-weight="600">08-seo-foundation.md</text>
  <text x="320" y="382" fill="#7a8399" font-size="9" font-family="'Geist Mono',monospace">Keywords, meta, schema, linking</text>

  <line x1="88" y1="408" x2="104" y2="408" stroke="#bfc0c0" stroke-width="1"/>
  <rect x="104" y="396" width="200" height="28" rx="4" fill="#ffffff" stroke="#bfc0c0" stroke-width="1"/>
  <text x="120" y="414" fill="#2d3142" font-size="10" font-weight="600">09-build-prompt.md</text>
  <rect x="312" y="396" width="64" height="28" rx="3" fill="#ece9fb" stroke="#6c5ce7" stroke-width="1"/>
  <text x="344" y="414" fill="#4b3fbf" font-size="8" font-family="'Geist Mono',monospace" text-anchor="middle">paste</text>
  <text x="392" y="414" fill="#7a8399" font-size="9" font-family="'Geist Mono',monospace">Everything inlined — copy-paste this one</text>

  <!-- blog/ -->
  <line x1="56" y1="452" x2="72" y2="452" stroke="#bfc0c0" stroke-width="1"/>
  <rect x="72" y="440" width="120" height="28" rx="4" fill="#e6f9e6" stroke="#27ae60" stroke-width="1"/>
  <text x="88" y="458" fill="#1a8a3e" font-size="10" font-weight="600">blog/</text>

  <line x1="88" y1="468" x2="88" y2="516" stroke="#bfc0c0" stroke-width="1"/>

  <line x1="88" y1="484" x2="104" y2="484" stroke="#bfc0c0" stroke-width="1"/>
  <rect x="104" y="472" width="200" height="28" rx="4" fill="#ffffff" stroke="#bfc0c0" stroke-width="1"/>
  <text x="120" y="490" fill="#2d3142" font-size="10" font-weight="600">content-plan.md</text>
  <text x="320" y="490" fill="#7a8399" font-size="9" font-family="'Geist Mono',monospace">What to publish, in what order</text>

  <line x1="88" y1="516" x2="104" y2="516" stroke="#bfc0c0" stroke-width="1"/>
  <rect x="104" y="504" width="200" height="28" rx="4" fill="#ffffff" stroke="#bfc0c0" stroke-width="1"/>
  <text x="120" y="522" fill="#2d3142" font-size="10" font-weight="600">articles/</text>
  <rect x="312" y="504" width="80" height="28" rx="3" fill="#e6f9e6" stroke="#27ae60" stroke-width="1"/>
  <text x="352" y="522" fill="#1a8a3e" font-size="8" font-family="'Geist Mono',monospace" text-anchor="middle">blog-write</text>
  <text x="408" y="522" fill="#7a8399" font-size="9" font-family="'Geist Mono',monospace">Written posts</text>

  <!-- seo/ -->
  <line x1="56" y1="556" x2="72" y2="556" stroke="#bfc0c0" stroke-width="1"/>
  <rect x="72" y="544" width="120" height="28" rx="4" fill="#e8f0fe" stroke="#4a69bd" stroke-width="1"/>
  <text x="88" y="562" fill="#2e5aa8" font-size="10" font-weight="600">seo/</text>

  <line x1="88" y1="572" x2="88" y2="684" stroke="#bfc0c0" stroke-width="1"/>

  <line x1="88" y1="588" x2="104" y2="588" stroke="#bfc0c0" stroke-width="1"/>
  <rect x="104" y="576" width="200" height="28" rx="4" fill="#ffffff" stroke="#bfc0c0" stroke-width="1"/>
  <text x="120" y="594" fill="#2d3142" font-size="10" font-weight="600">keyword-strategy.md</text>

  <line x1="88" y1="620" x2="104" y2="620" stroke="#bfc0c0" stroke-width="1"/>
  <rect x="104" y="608" width="200" height="28" rx="4" fill="#ffffff" stroke="#bfc0c0" stroke-width="1"/>
  <text x="120" y="626" fill="#2d3142" font-size="10" font-weight="600">research/</text>
  <text x="320" y="626" fill="#7a8399" font-size="9" font-family="'Geist Mono',monospace">Competitors, discourse, industry refs</text>

  <line x1="88" y1="652" x2="104" y2="652" stroke="#bfc0c0" stroke-width="1"/>
  <rect x="104" y="640" width="200" height="28" rx="4" fill="#ffffff" stroke="#bfc0c0" stroke-width="1"/>
  <text x="120" y="658" fill="#2d3142" font-size="10" font-weight="600">reports/</text>
  <rect x="312" y="640" width="64" height="28" rx="3" fill="#fde8e0" stroke="#eb6c36" stroke-width="1"/>
  <text x="344" y="658" fill="#c0392b" font-size="8" font-family="'Geist Mono',monospace" text-anchor="middle">audit</text>
  <text x="392" y="658" fill="#7a8399" font-size="9" font-family="'Geist Mono',monospace">audit.html + audit.md (canonical, overwritten)</text>

  <line x1="88" y1="684" x2="104" y2="684" stroke="#bfc0c0" stroke-width="1"/>
  <rect x="104" y="672" width="200" height="28" rx="4" fill="#ffffff" stroke="#bfc0c0" stroke-width="1"/>
  <text x="120" y="690" fill="#2d3142" font-size="10" font-weight="600">diagrams/</text>
  <text x="320" y="690" fill="#7a8399" font-size="9" font-family="'Geist Mono',monospace">Keyword gap, content cluster, priority</text>

  <!-- ads/ -->
  <line x1="56" y1="724" x2="72" y2="724" stroke="#bfc0c0" stroke-width="1"/>
  <rect x="72" y="712" width="120" height="28" rx="4" fill="#fef3e0" stroke="#f39c12" stroke-width="1"/>
  <text x="88" y="730" fill="#b8860b" font-size="10" font-weight="600">ads/</text>

  <line x1="88" y1="740" x2="88" y2="788" stroke="#bfc0c0" stroke-width="1"/>

  <line x1="88" y1="756" x2="104" y2="756" stroke="#bfc0c0" stroke-width="1"/>
  <rect x="104" y="744" width="200" height="28" rx="4" fill="#ffffff" stroke="#bfc0c0" stroke-width="1"/>
  <text x="120" y="762" fill="#2d3142" font-size="10" font-weight="600">ads-strategy.html + .md</text>
  <text x="320" y="762" fill="#7a8399" font-size="9" font-family="'Geist Mono',monospace">Platforms, budget, campaigns</text>

  <line x1="88" y1="788" x2="104" y2="788" stroke="#bfc0c0" stroke-width="1"/>
  <rect x="104" y="776" width="200" height="28" rx="4" fill="#ffffff" stroke="#bfc0c0" stroke-width="1"/>
  <text x="120" y="794" fill="#2d3142" font-size="10" font-weight="600">diagrams/</text>
  <text x="320" y="794" fill="#7a8399" font-size="9" font-family="'Geist Mono',monospace">Platform fit, budget split, campaign flow</text>

  <!-- notes / products / strategy -->
  <line x1="56" y1="828" x2="72" y2="828" stroke="#bfc0c0" stroke-width="1"/>
  <rect x="72" y="816" width="200" height="28" rx="4" fill="#ffffff" stroke="#bfc0c0" stroke-width="1"/>
  <text x="88" y="834" fill="#2d3142" font-size="10" font-weight="600">notes/ products/ strategy/</text>
  <text x="320" y="834" fill="#7a8399" font-size="9" font-family="'Geist Mono',monospace">Research notes and reference docs</text>

  <!-- components/ -->
  <line x1="56" y1="860" x2="72" y2="860" stroke="#bfc0c0" stroke-width="1"/>
  <rect x="72" y="848" width="280" height="28" rx="4" fill="#d9f2f0" stroke="#16a085" stroke-width="1"/>
  <text x="88" y="866" fill="#0e7a67" font-size="10" font-weight="600">components/</text>
  <rect x="360" y="848" width="72" height="28" rx="3" fill="#d9f2f0" stroke="#16a085" stroke-width="1"/>
  <text x="396" y="866" fill="#0e7a67" font-size="8" font-family="'Geist Mono',monospace" text-anchor="middle">shared</text>
  <text x="444" y="866" fill="#7a8399" font-size="9" font-family="'Geist Mono',monospace">cross-nav.html — shared navigation for all HTML reports</text>

  <!-- site/ (Branch B only) -->
  <line x1="56" y1="892" x2="72" y2="892" stroke="#bfc0c0" stroke-width="1"/>
  <rect x="72" y="880" width="280" height="28" rx="4" fill="#ffffff" stroke="#bfc0c0" stroke-width="1"/>
  <text x="88" y="898" fill="#2d3142" font-size="10" font-weight="600">site/ (Branch B only, optional)</text>
  <rect x="360" y="880" width="72" height="28" rx="3" fill="#e6f9e6" stroke="#27ae60" stroke-width="1"/>
  <text x="396" y="898" fill="#1a8a3e" font-size="8" font-family="'Geist Mono',monospace" text-anchor="middle">scaffold</text>
  <text x="444" y="898" fill="#7a8399" font-size="9" font-family="'Geist Mono',monospace">Optional starter, shaped by build/07-tech-spec.md</text>

  <!-- Cross-nav note -->
  <line x1="40" y1="928" x2="840" y2="928" stroke="#16a085" stroke-width="1" stroke-dasharray="4,4"/>
  <text x="440" y="948" fill="#16a085" font-size="10" text-anchor="middle" font-weight="600">All HTML reports include components/cross-nav.html for navigation</text>
  <text x="440" y="964" fill="#7a8399" font-size="9" text-anchor="middle">overview.html ↔ audit.html ↔ diagrams/*.html ↔ ads-strategy.html</text>

  <!-- Legend -->
  <line x1="40" y1="948" x2="840" y2="948" stroke="#bfc0c0" stroke-width="1"/>
  <rect x="40" y="960" width="12" height="12" rx="2" fill="#d9f2f0" stroke="none"/>
  <text x="58" y="971" fill="#0e7a67" font-size="9" font-weight="600" font-family="'Geist Mono',monospace">layout — owns hierarchy</text>
  <rect x="230" y="960" width="12" height="12" rx="2" fill="#ece9fb" stroke="none"/>
  <text x="248" y="971" fill="#4b3fbf" font-size="9" font-weight="600" font-family="'Geist Mono',monospace">hand over this</text>
  <rect x="380" y="960" width="12" height="12" rx="2" fill="#e6f9e6" stroke="none"/>
  <text x="398" y="971" fill="#1a8a3e" font-size="9" font-weight="600" font-family="'Geist Mono',monospace">blog-write</text>
  <rect x="500" y="960" width="12" height="12" rx="2" fill="#fde8e0" stroke="none"/>
  <text x="518" y="971" fill="#c0392b" font-size="9" font-weight="600" font-family="'Geist Mono',monospace">audit / reaudit</text>
  <rect x="640" y="960" width="12" height="12" rx="2" fill="#e8f0fe" stroke="none"/>
  <text x="658" y="971" fill="#2e5aa8" font-size="9" font-weight="600" font-family="'Geist Mono',monospace">init</text>
  <rect x="730" y="960" width="12" height="12" rx="2" fill="#fef3e0" stroke="none"/>
  <text x="748" y="971" fill="#b8860b" font-size="9" font-weight="600" font-family="'Geist Mono',monospace">ads</text>
</svg>
