<svg xmlns="http://www.w3.org/2000/svg" viewBox="0 0 960 520" font-family="'Geist',system-ui,sans-serif" role="img" aria-labelledby="fs-title fs-desc">
  <title id="fs-title">SEO Pilot File Structure</title>
  <desc id="fs-desc">Directory tree showing all files created by SEO Pilot commands: init, blog-write, audit, and reaudit.</desc>
  <rect width="960" height="520" fill="#f5f5f5"/>

  <!-- Title -->
  <text x="40" y="36" fill="#2d3142" font-size="14" font-weight="600">seo-pilot/</text>
  <text x="152" y="36" fill="#7a8399" font-size="10" font-family="'Geist Mono',monospace">Root directory</text>

  <!-- ═══ COLUMN 1: config + strategy ═══ -->
  <!-- Tree lines -->
  <line x1="56" y1="52" x2="56" y2="200" stroke="rgba(45,49,66,0.12)" stroke-width="1"/>
  <line x1="56" y1="68" x2="72" y2="68" stroke="rgba(45,49,66,0.12)" stroke-width="1"/>
  <line x1="56" y1="100" x2="72" y2="100" stroke="rgba(45,49,66,0.12)" stroke-width="1"/>
  <line x1="56" y1="132" x2="72" y2="132" stroke="rgba(45,49,66,0.12)" stroke-width="1"/>
  <line x1="56" y1="164" x2="72" y2="164" stroke="rgba(45,49,66,0.12)" stroke-width="1"/>
  <line x1="56" y1="196" x2="72" y2="196" stroke="rgba(45,49,66,0.12)" stroke-width="1"/>

  <!-- seo-strategy.html -->
  <rect x="72" y="56" width="180" height="28" rx="4" fill="rgba(45,49,66,0.04)" stroke="rgba(45,49,66,0.12)" stroke-width="0.8"/>
  <text x="88" y="74" fill="#2d3142" font-size="9" font-weight="600">seo-strategy.html</text>
  <rect x="260" y="56" width="48" height="28" rx="3" fill="rgba(74,105,189,0.1)" stroke="rgba(74,105,189,0.3)" stroke-width="0.8"/>
  <text x="284" y="74" fill="#4a69bd" font-size="7" font-family="'Geist Mono',monospace" text-anchor="middle">init</text>
  <text x="320" y="74" fill="#7a8399" font-size="9" font-family="'Geist Mono',monospace">Strategy report (open in browser)</text>

  <!-- .seo-project.md -->
  <rect x="72" y="92" width="180" height="28" rx="4" fill="rgba(45,49,66,0.04)" stroke="rgba(45,49,66,0.12)" stroke-width="0.8"/>
  <text x="88" y="110" fill="#2d3142" font-size="9" font-weight="600">.seo-project.md</text>
  <rect x="260" y="92" width="48" height="28" rx="3" fill="rgba(74,105,189,0.1)" stroke="rgba(74,105,189,0.3)" stroke-width="0.8"/>
  <text x="284" y="110" fill="#4a69bd" font-size="7" font-family="'Geist Mono',monospace" text-anchor="middle">init</text>
  <text x="320" y="110" fill="#7a8399" font-size="9" font-family="'Geist Mono',monospace">Site config, keywords, competitors</text>

  <!-- .seo-state.json -->
  <rect x="72" y="124" width="180" height="28" rx="4" fill="rgba(45,49,66,0.04)" stroke="rgba(45,49,66,0.12)" stroke-width="0.8"/>
  <text x="88" y="142" fill="#2d3142" font-size="9" font-weight="600">.seo-state.json</text>
  <rect x="260" y="124" width="48" height="28" rx="3" fill="rgba(74,105,189,0.1)" stroke="rgba(74,105,189,0.3)" stroke-width="0.8"/>
  <text x="284" y="142" fill="#4a69bd" font-size="7" font-family="'Geist Mono',monospace" text-anchor="middle">init</text>
  <text x="320" y="142" fill="#7a8399" font-size="9" font-family="'Geist Mono',monospace">Pipeline tracker</text>

  <!-- ═══ COLUMN 2: diagrams ═══ -->
  <line x1="56" y1="164" x2="520" y2="164" stroke="rgba(45,49,66,0.06)" stroke-width="0.8" stroke-dasharray="4,3"/>
  <line x1="520" y1="164" x2="520" y2="200" stroke="rgba(45,49,66,0.12)" stroke-width="1"/>
  <line x1="520" y1="176" x2="536" y2="176" stroke="rgba(45,49,66,0.12)" stroke-width="1"/>
  <line x1="520" y1="208" x2="536" y2="208" stroke="rgba(45,49,66,0.12)" stroke-width="1"/>
  <line x1="520" y1="240" x2="536" y2="240" stroke="rgba(45,49,66,0.12)" stroke-width="1"/>
  <line x1="520" y1="272" x2="536" y2="272" stroke="rgba(45,49,66,0.12)" stroke-width="1"/>

  <!-- diagrams folder -->
  <rect x="500" y="156" width="100" height="24" rx="4" fill="rgba(243,156,18,0.08)" stroke="rgba(243,156,18,0.3)" stroke-width="0.8"/>
  <text x="550" y="172" fill="#b8860b" font-size="9" font-weight="600" text-anchor="middle">diagrams/</text>

  <!-- keyword-gap.html -->
  <rect x="536" y="168" width="180" height="28" rx="4" fill="rgba(45,49,66,0.04)" stroke="rgba(45,49,66,0.12)" stroke-width="0.8"/>
  <text x="552" y="186" fill="#2d3142" font-size="9" font-weight="600">keyword-gap.html</text>
  <rect x="724" y="168" width="48" height="28" rx="3" fill="rgba(74,105,189,0.1)" stroke="rgba(74,105,189,0.3)" stroke-width="0.8"/>
  <text x="748" y="186" fill="#4a69bd" font-size="7" font-family="'Geist Mono',monospace" text-anchor="middle">init</text>
  <text x="784" y="186" fill="#7a8399" font-size="9" font-family="'Geist Mono',monospace">Keyword gap vs competitors</text>

  <!-- content-cluster.html -->
  <rect x="536" y="200" width="180" height="28" rx="4" fill="rgba(45,49,66,0.04)" stroke="rgba(45,49,66,0.12)" stroke-width="0.8"/>
  <text x="552" y="218" fill="#2d3142" font-size="9" font-weight="600">content-cluster.html</text>
  <rect x="724" y="200" width="48" height="28" rx="3" fill="rgba(74,105,189,0.1)" stroke="rgba(74,105,189,0.3)" stroke-width="0.8"/>
  <text x="748" y="218" fill="#4a69bd" font-size="7" font-family="'Geist Mono',monospace" text-anchor="middle">init</text>
  <text x="784" y="218" fill="#7a8399" font-size="9" font-family="'Geist Mono',monospace">Hub-and-spoke content map</text>

  <!-- seo-priority.html -->
  <rect x="536" y="232" width="180" height="28" rx="4" fill="rgba(45,49,66,0.04)" stroke="rgba(45,49,66,0.12)" stroke-width="0.8"/>
  <text x="552" y="250" fill="#2d3142" font-size="9" font-weight="600">seo-priority.html</text>
  <rect x="724" y="232" width="48" height="28" rx="3" fill="rgba(74,105,189,0.1)" stroke="rgba(74,105,189,0.3)" stroke-width="0.8"/>
  <text x="748" y="250" fill="#4a69bd" font-size="7" font-family="'Geist Mono',monospace" text-anchor="middle">init</text>
  <text x="784" y="250" fill="#7a8399" font-size="9" font-family="'Geist Mono',monospace">Action items by impact/effort</text>

  <!-- ═══ COLUMN 2: research ═══ -->
  <line x1="520" y1="272" x2="520" y2="308" stroke="rgba(45,49,66,0.12)" stroke-width="1"/>
  <line x1="520" y1="284" x2="536" y2="284" stroke="rgba(45,49,66,0.12)" stroke-width="1"/>
  <line x1="520" y1="316" x2="536" y2="316" stroke="rgba(45,49,66,0.12)" stroke-width="1"/>
  <line x1="520" y1="348" x2="536" y2="348" stroke="rgba(45,49,66,0.12)" stroke-width="1"/>
  <line x1="520" y1="380" x2="536" y2="380" stroke="rgba(45,49,66,0.12)" stroke-width="1"/>
  <line x1="520" y1="412" x2="536" y2="412" stroke="rgba(45,49,66,0.12)" stroke-width="1"/>

  <!-- research folder -->
  <rect x="500" y="276" width="100" height="24" rx="4" fill="rgba(106,149,216,0.1)" stroke="rgba(106,149,216,0.3)" stroke-width="0.8"/>
  <text x="550" y="292" fill="#2e5aa8" font-size="9" font-weight="600" text-anchor="middle">research/</text>

  <!-- website-analysis.md -->
  <rect x="536" y="276" width="180" height="28" rx="4" fill="rgba(45,49,66,0.04)" stroke="rgba(45,49,66,0.12)" stroke-width="0.8"/>
  <text x="552" y="294" fill="#2d3142" font-size="9" font-weight="600">website-analysis.md</text>
  <rect x="724" y="276" width="48" height="28" rx="3" fill="rgba(74,105,189,0.1)" stroke="rgba(74,105,189,0.3)" stroke-width="0.8"/>
  <text x="748" y="294" fill="#4a69bd" font-size="7" font-family="'Geist Mono',monospace" text-anchor="middle">init</text>
  <text x="784" y="294" fill="#7a8399" font-size="9" font-family="'Geist Mono',monospace">Scraped site + SEO elements</text>

  <!-- competitors/*.md -->
  <rect x="536" y="308" width="180" height="28" rx="4" fill="rgba(45,49,66,0.04)" stroke="rgba(45,49,66,0.12)" stroke-width="0.8"/>
  <text x="552" y="326" fill="#2d3142" font-size="9" font-weight="600">competitors/*.md</text>
  <rect x="724" y="308" width="48" height="28" rx="3" fill="rgba(74,105,189,0.1)" stroke="rgba(74,105,189,0.3)" stroke-width="0.8"/>
  <text x="748" y="326" fill="#4a69bd" font-size="7" font-family="'Geist Mono',monospace" text-anchor="middle">init</text>
  <text x="784" y="326" fill="#7a8399" font-size="9" font-family="'Geist Mono',monospace">Per-competitor SEO analysis</text>

  <!-- keywords/keyword-strategy.md -->
  <rect x="536" y="340" width="180" height="28" rx="4" fill="rgba(45,49,66,0.04)" stroke="rgba(45,49,66,0.12)" stroke-width="0.8"/>
  <text x="552" y="358" fill="#2d3142" font-size="9" font-weight="600">keywords/strategy.md</text>
  <rect x="724" y="340" width="48" height="28" rx="3" fill="rgba(74,105,189,0.1)" stroke="rgba(74,105,189,0.3)" stroke-width="0.8"/>
  <text x="748" y="358" fill="#4a69bd" font-size="7" font-family="'Geist Mono',monospace" text-anchor="middle">init</text>
  <text x="784" y="358" fill="#7a8399" font-size="9" font-family="'Geist Mono',monospace">Keyword research + SERP analysis</text>

  <!-- discourse/questions.md -->
  <rect x="536" y="372" width="180" height="28" rx="4" fill="rgba(45,49,66,0.04)" stroke="rgba(45,49,66,0.12)" stroke-width="0.8"/>
  <text x="552" y="390" fill="#2d3142" font-size="9" font-weight="600">discourse/questions.md</text>
  <rect x="724" y="372" width="48" height="28" rx="3" fill="rgba(74,105,189,0.1)" stroke="rgba(74,105,189,0.3)" stroke-width="0.8"/>
  <text x="748" y="390" fill="#4a69bd" font-size="7" font-family="'Geist Mono',monospace" text-anchor="middle">init</text>
  <text x="784" y="390" fill="#7a8399" font-size="9" font-family="'Geist Mono',monospace">Question-based content ideas</text>

  <!-- ═══ COLUMN 3: content + reports ═══ -->
  <!-- content/ -->
  <line x1="56" y1="200" x2="56" y2="236" stroke="rgba(45,49,66,0.12)" stroke-width="1"/>
  <line x1="56" y1="212" x2="72" y2="212" stroke="rgba(45,49,66,0.12)" stroke-width="1"/>

  <rect x="40" y="204" width="100" height="24" rx="4" fill="rgba(39,174,96,0.08)" stroke="rgba(39,174,96,0.3)" stroke-width="0.8"/>
  <text x="90" y="220" fill="#27ae60" font-size="9" font-weight="600" text-anchor="middle">content/</text>

  <rect x="72" y="204" width="180" height="28" rx="4" fill="rgba(45,49,66,0.04)" stroke="rgba(45,49,66,0.12)" stroke-width="0.8"/>
  <text x="88" y="222" fill="#2d3142" font-size="9" font-weight="600">*.md</text>
  <rect x="260" y="204" width="72" height="28" rx="3" fill="rgba(39,174,96,0.1)" stroke="rgba(39,174,96,0.3)" stroke-width="0.8"/>
  <text x="296" y="222" fill="#27ae60" font-size="7" font-family="'Geist Mono',monospace" text-anchor="middle">blog-write</text>
  <text x="340" y="222" fill="#7a8399" font-size="9" font-family="'Geist Mono',monospace">Published blog posts</text>

  <!-- reports/ -->
  <line x1="56" y1="236" x2="56" y2="488" stroke="rgba(45,49,66,0.12)" stroke-width="1"/>
  <line x1="56" y1="248" x2="72" y2="248" stroke="rgba(45,49,66,0.12)" stroke-width="1"/>
  <line x1="56" y1="280" x2="72" y2="280" stroke="rgba(45,49,66,0.12)" stroke-width="1"/>
  <line x1="56" y1="312" x2="72" y2="312" stroke="rgba(45,49,66,0.12)" stroke-width="1"/>
  <line x1="56" y1="344" x2="72" y2="344" stroke="rgba(45,49,66,0.12)" stroke-width="1"/>
  <line x1="56" y1="376" x2="72" y2="376" stroke="rgba(45,49,66,0.12)" stroke-width="1"/>
  <line x1="56" y1="408" x2="72" y2="408" stroke="rgba(45,49,66,0.12)" stroke-width="1"/>
  <line x1="56" y1="440" x2="72" y2="440" stroke="rgba(45,49,66,0.12)" stroke-width="1"/>
  <line x1="56" y1="472" x2="72" y2="472" stroke="rgba(45,49,66,0.12)" stroke-width="1"/>

  <rect x="40" y="240" width="100" height="24" rx="4" fill="rgba(235,108,54,0.08)" stroke="rgba(235,108,54,0.3)" stroke-width="0.8"/>
  <text x="90" y="256" fill="#eb6c36" font-size="9" font-weight="600" text-anchor="middle">reports/</text>

  <!-- audit-*.html -->
  <rect x="72" y="240" width="180" height="28" rx="4" fill="rgba(235,108,54,0.04)" stroke="rgba(235,108,54,0.2)" stroke-width="0.8"/>
  <text x="88" y="258" fill="#2d3142" font-size="9" font-weight="600">audit-*-{date}.html</text>
  <rect x="260" y="240" width="72" height="28" rx="3" fill="rgba(235,108,54,0.1)" stroke="rgba(235,108,54,0.3)" stroke-width="0.8"/>
  <text x="296" y="258" fill="#eb6c36" font-size="7" font-family="'Geist Mono',monospace" text-anchor="middle">reaudit</text>
  <text x="340" y="258" fill="#7a8399" font-size="9" font-family="'Geist Mono',monospace">Full audit report (interactive)</text>

  <!-- audit-*.md -->
  <rect x="72" y="272" width="180" height="28" rx="4" fill="rgba(45,49,66,0.04)" stroke="rgba(45,49,66,0.12)" stroke-width="0.8"/>
  <text x="88" y="290" fill="#2d3142" font-size="9" font-weight="600">audit-*-{date}.md</text>
  <rect x="260" y="272" width="72" height="28" rx="3" fill="rgba(235,108,54,0.1)" stroke="rgba(235,108,54,0.3)" stroke-width="0.8"/>
  <text x="296" y="290" fill="#eb6c36" font-size="7" font-family="'Geist Mono',monospace" text-anchor="middle">reaudit</text>
  <text x="340" y="290" fill="#7a8399" font-size="9" font-family="'Geist Mono',monospace">Markdown summary</text>

  <!-- technical-audit.md -->
  <rect x="72" y="304" width="180" height="28" rx="4" fill="rgba(45,49,66,0.04)" stroke="rgba(45,49,66,0.12)" stroke-width="0.8"/>
  <text x="88" y="322" fill="#2d3142" font-size="9" font-weight="600">technical-audit.md</text>
  <rect x="260" y="304" width="72" height="28" rx="3" fill="rgba(235,108,54,0.1)" stroke="rgba(235,108,54,0.3)" stroke-width="0.8"/>
  <text x="296" y="322" fill="#eb6c36" font-size="7" font-family="'Geist Mono',monospace" text-anchor="middle">reaudit</text>
  <text x="340" y="322" fill="#7a8399" font-size="9" font-family="'Geist Mono',monospace">Technical SEO findings</text>

  <!-- onpage-audit.md -->
  <rect x="72" y="336" width="180" height="28" rx="4" fill="rgba(45,49,66,0.04)" stroke="rgba(45,49,66,0.12)" stroke-width="0.8"/>
  <text x="88" y="354" fill="#2d3142" font-size="9" font-weight="600">onpage-audit.md</text>
  <rect x="260" y="336" width="72" height="28" rx="3" fill="rgba(235,108,54,0.1)" stroke="rgba(235,108,54,0.3)" stroke-width="0.8"/>
  <text x="296" y="354" fill="#eb6c36" font-size="7" font-family="'Geist Mono',monospace" text-anchor="middle">reaudit</text>
  <text x="340" y="354" fill="#7a8399" font-size="9" font-family="'Geist Mono',monospace">On-page SEO findings</text>

  <!-- schema-audit.md -->
  <rect x="72" y="368" width="180" height="28" rx="4" fill="rgba(45,49,66,0.04)" stroke="rgba(45,49,66,0.12)" stroke-width="0.8"/>
  <text x="88" y="386" fill="#2d3142" font-size="9" font-weight="600">schema-audit.md</text>
  <rect x="260" y="368" width="72" height="28" rx="3" fill="rgba(235,108,54,0.1)" stroke="rgba(235,108,54,0.3)" stroke-width="0.8"/>
  <text x="296" y="386" fill="#eb6c36" font-size="7" font-family="'Geist Mono',monospace" text-anchor="middle">reaudit</text>
  <text x="340" y="386" fill="#7a8399" font-size="9" font-family="'Geist Mono',monospace">Schema validation</text>

  <!-- geo-audit.md -->
  <rect x="72" y="400" width="180" height="28" rx="4" fill="rgba(45,49,66,0.04)" stroke="rgba(45,49,66,0.12)" stroke-width="0.8"/>
  <text x="88" y="418" fill="#2d3142" font-size="9" font-weight="600">geo-audit.md</text>
  <rect x="260" y="400" width="72" height="28" rx="3" fill="rgba(235,108,54,0.1)" stroke="rgba(235,108,54,0.3)" stroke-width="0.8"/>
  <text x="296" y="418" fill="#eb6c36" font-size="7" font-family="'Geist Mono',monospace" text-anchor="middle">reaudit</text>
  <text x="340" y="418" fill="#7a8399" font-size="9" font-family="'Geist Mono',monospace">GEO / AI citation readiness</text>

  <!-- content-quality-audit.md -->
  <rect x="72" y="432" width="180" height="28" rx="4" fill="rgba(45,49,66,0.04)" stroke="rgba(45,49,66,0.12)" stroke-width="0.8"/>
  <text x="88" y="450" fill="#2d3142" font-size="9" font-weight="600">content-quality-audit.md</text>
  <rect x="260" y="432" width="72" height="28" rx="3" fill="rgba(235,108,54,0.1)" stroke="rgba(235,108,54,0.3)" stroke-width="0.8"/>
  <text x="296" y="450" fill="#eb6c36" font-size="7" font-family="'Geist Mono',monospace" text-anchor="middle">reaudit</text>
  <text x="340" y="450" fill="#7a8399" font-size="9" font-family="'Geist Mono',monospace">Content quality + E-E-A-T</text>

  <!-- Legend -->
  <line x1="40" y1="496" x2="920" y2="496" stroke="rgba(45,49,66,0.10)" stroke-width="0.8"/>
  <text x="40" y="512" fill="#4f5d75" font-size="7" font-family="'Geist Mono',monospace" letter-spacing="0.14em">LEGEND</text>

  <rect x="120" y="504" width="10" height="10" rx="2" fill="rgba(74,105,189,0.1)" stroke="rgba(74,105,189,0.3)" stroke-width="0.8"/>
  <text x="136" y="513" fill="#4f5d75" font-size="7" font-family="'Geist Mono',monospace">Created by init</text>

  <rect x="260" y="504" width="10" height="10" rx="2" fill="rgba(39,174,96,0.1)" stroke="rgba(39,174,96,0.3)" stroke-width="0.8"/>
  <text x="276" y="513" fill="#4f5d75" font-size="7" font-family="'Geist Mono',monospace">Created by blog-write</text>

  <rect x="420" y="504" width="10" height="10" rx="2" fill="rgba(235,108,54,0.1)" stroke="rgba(235,108,54,0.3)" stroke-width="0.8"/>
  <text x="436" y="513" fill="#4f5d75" font-size="7" font-family="'Geist Mono',monospace">Created by audit / reaudit</text>
</svg>
