<svg xmlns="http://www.w3.org/2000/svg" viewBox="0 0 880 800" font-family="'Geist',system-ui,sans-serif" role="img" aria-labelledby="fs-title fs-desc">
  <title id="fs-title">SEO Pilot File Structure</title>
  <desc id="fs-desc">Directory tree showing all files created by SEO Pilot commands: init, blog-write, audit, and reaudit.</desc>
  <style>svg { color-scheme: light only; }</style>
  <rect width="880" height="800" fill="#f5f5f5"/>

  <!-- Title -->
  <text x="40" y="36" fill="#2d3142" font-size="16" font-weight="600">seo-pilot/</text>
  <text x="172" y="36" fill="#7a8399" font-size="10" font-family="'Geist Mono',monospace">Root directory</text>

  <!-- ═══ ROOT FILES ═══════════════════════════════════ -->
  <line x1="56" y1="52" x2="56" y2="628" stroke="#bfc0c0" stroke-width="1"/>

  <!-- seo-strategy.html -->
  <line x1="56" y1="56" x2="72" y2="56" stroke="#bfc0c0" stroke-width="1"/>
  <rect x="72" y="44" width="200" height="28" rx="4" fill="#ffffff" stroke="#bfc0c0" stroke-width="1"/>
  <text x="88" y="62" fill="#2d3142" font-size="10" font-weight="600">seo-strategy.html</text>
  <rect x="280" y="44" width="44" height="28" rx="3" fill="#e8f0fe" stroke="#4a69bd" stroke-width="1"/>
  <text x="302" y="62" fill="#4a69bd" font-size="8" font-family="'Geist Mono',monospace" text-anchor="middle">init</text>
  <text x="336" y="62" fill="#7a8399" font-size="9" font-family="'Geist Mono',monospace">Strategy report (open in browser)</text>

  <!-- .seo-project.md -->
  <line x1="56" y1="88" x2="72" y2="88" stroke="#bfc0c0" stroke-width="1"/>
  <rect x="72" y="76" width="200" height="28" rx="4" fill="#ffffff" stroke="#bfc0c0" stroke-width="1"/>
  <text x="88" y="94" fill="#2d3142" font-size="10" font-weight="600">.seo-project.md</text>
  <rect x="280" y="76" width="44" height="28" rx="3" fill="#e8f0fe" stroke="#4a69bd" stroke-width="1"/>
  <text x="302" y="94" fill="#4a69bd" font-size="8" font-family="'Geist Mono',monospace" text-anchor="middle">init</text>
  <text x="336" y="94" fill="#7a8399" font-size="9" font-family="'Geist Mono',monospace">Site config, keywords, competitors</text>

  <!-- .seo-state.json -->
  <line x1="56" y1="120" x2="72" y2="120" stroke="#bfc0c0" stroke-width="1"/>
  <rect x="72" y="108" width="200" height="28" rx="4" fill="#ffffff" stroke="#bfc0c0" stroke-width="1"/>
  <text x="88" y="126" fill="#2d3142" font-size="10" font-weight="600">.seo-state.json</text>
  <rect x="280" y="108" width="44" height="28" rx="3" fill="#e8f0fe" stroke="#4a69bd" stroke-width="1"/>
  <text x="302" y="126" fill="#4a69bd" font-size="8" font-family="'Geist Mono',monospace" text-anchor="middle">init</text>
  <text x="336" y="126" fill="#7a8399" font-size="9" font-family="'Geist Mono',monospace">Pipeline tracker</text>

  <!-- ═══ DIAGRAMS/ ═══════════════════════════════════ -->
  <line x1="56" y1="152" x2="72" y2="152" stroke="#bfc0c0" stroke-width="1"/>
  <rect x="72" y="140" width="120" height="28" rx="4" fill="#fef3e0" stroke="#f39c12" stroke-width="1"/>
  <text x="88" y="158" fill="#b8860b" font-size="10" font-weight="600">diagrams/</text>

  <line x1="88" y1="168" x2="88" y2="288" stroke="#bfc0c0" stroke-width="1"/>

  <line x1="88" y1="184" x2="104" y2="184" stroke="#bfc0c0" stroke-width="1"/>
  <rect x="104" y="172" width="200" height="28" rx="4" fill="#ffffff" stroke="#bfc0c0" stroke-width="1"/>
  <text x="120" y="190" fill="#2d3142" font-size="10" font-weight="600">keyword-gap.html</text>
  <rect x="312" y="172" width="44" height="28" rx="3" fill="#e8f0fe" stroke="#4a69bd" stroke-width="1"/>
  <text x="334" y="190" fill="#4a69bd" font-size="8" font-family="'Geist Mono',monospace" text-anchor="middle">init</text>
  <text x="368" y="190" fill="#7a8399" font-size="9" font-family="'Geist Mono',monospace">Keyword gap vs competitors</text>

  <line x1="88" y1="216" x2="104" y2="216" stroke="#bfc0c0" stroke-width="1"/>
  <rect x="104" y="204" width="200" height="28" rx="4" fill="#ffffff" stroke="#bfc0c0" stroke-width="1"/>
  <text x="120" y="222" fill="#2d3142" font-size="10" font-weight="600">content-cluster.html</text>
  <rect x="312" y="204" width="44" height="28" rx="3" fill="#e8f0fe" stroke="#4a69bd" stroke-width="1"/>
  <text x="334" y="222" fill="#4a69bd" font-size="8" font-family="'Geist Mono',monospace" text-anchor="middle">init</text>
  <text x="368" y="222" fill="#7a8399" font-size="9" font-family="'Geist Mono',monospace">Hub-and-spoke content map</text>

  <line x1="88" y1="248" x2="104" y2="248" stroke="#bfc0c0" stroke-width="1"/>
  <rect x="104" y="236" width="200" height="28" rx="4" fill="#ffffff" stroke="#bfc0c0" stroke-width="1"/>
  <text x="120" y="254" fill="#2d3142" font-size="10" font-weight="600">seo-priority.html</text>
  <rect x="312" y="236" width="44" height="28" rx="3" fill="#e8f0fe" stroke="#4a69bd" stroke-width="1"/>
  <text x="334" y="254" fill="#4a69bd" font-size="8" font-family="'Geist Mono',monospace" text-anchor="middle">init</text>
  <text x="368" y="254" fill="#7a8399" font-size="9" font-family="'Geist Mono',monospace">Action items by impact/effort</text>

  <!-- ═══ RESEARCH/ ═══════════════════════════════════ -->
  <line x1="56" y1="296" x2="72" y2="296" stroke="#bfc0c0" stroke-width="1"/>
  <rect x="72" y="284" width="120" height="28" rx="4" fill="#e8f0fe" stroke="#4a69bd" stroke-width="1"/>
  <text x="88" y="302" fill="#2e5aa8" font-size="10" font-weight="600">research/</text>

  <line x1="88" y1="312" x2="88" y2="464" stroke="#bfc0c0" stroke-width="1"/>

  <line x1="88" y1="328" x2="104" y2="328" stroke="#bfc0c0" stroke-width="1"/>
  <rect x="104" y="316" width="200" height="28" rx="4" fill="#ffffff" stroke="#bfc0c0" stroke-width="1"/>
  <text x="120" y="334" fill="#2d3142" font-size="10" font-weight="600">website-analysis.md</text>
  <rect x="312" y="316" width="44" height="28" rx="3" fill="#e8f0fe" stroke="#4a69bd" stroke-width="1"/>
  <text x="334" y="334" fill="#4a69bd" font-size="8" font-family="'Geist Mono',monospace" text-anchor="middle">init</text>
  <text x="368" y="334" fill="#7a8399" font-size="9" font-family="'Geist Mono',monospace">Scraped site + SEO elements</text>

  <line x1="88" y1="360" x2="104" y2="360" stroke="#bfc0c0" stroke-width="1"/>
  <rect x="104" y="348" width="200" height="28" rx="4" fill="#ffffff" stroke="#bfc0c0" stroke-width="1"/>
  <text x="120" y="366" fill="#2d3142" font-size="10" font-weight="600">competitors/*.md</text>
  <rect x="312" y="348" width="44" height="28" rx="3" fill="#e8f0fe" stroke="#4a69bd" stroke-width="1"/>
  <text x="334" y="366" fill="#4a69bd" font-size="8" font-family="'Geist Mono',monospace" text-anchor="middle">init</text>
  <text x="368" y="366" fill="#7a8399" font-size="9" font-family="'Geist Mono',monospace">Per-competitor SEO analysis</text>

  <line x1="88" y1="392" x2="104" y2="392" stroke="#bfc0c0" stroke-width="1"/>
  <rect x="104" y="380" width="200" height="28" rx="4" fill="#ffffff" stroke="#bfc0c0" stroke-width="1"/>
  <text x="120" y="398" fill="#2d3142" font-size="10" font-weight="600">keywords/strategy.md</text>
  <rect x="312" y="380" width="44" height="28" rx="3" fill="#e8f0fe" stroke="#4a69bd" stroke-width="1"/>
  <text x="334" y="398" fill="#4a69bd" font-size="8" font-family="'Geist Mono',monospace" text-anchor="middle">init</text>
  <text x="368" y="398" fill="#7a8399" font-size="9" font-family="'Geist Mono',monospace">Keyword research + SERP analysis</text>

  <line x1="88" y1="424" x2="104" y2="424" stroke="#bfc0c0" stroke-width="1"/>
  <rect x="104" y="412" width="200" height="28" rx="4" fill="#ffffff" stroke="#bfc0c0" stroke-width="1"/>
  <text x="120" y="430" fill="#2d3142" font-size="10" font-weight="600">discourse/questions.md</text>
  <rect x="312" y="412" width="44" height="28" rx="3" fill="#e8f0fe" stroke="#4a69bd" stroke-width="1"/>
  <text x="334" y="430" fill="#4a69bd" font-size="8" font-family="'Geist Mono',monospace" text-anchor="middle">init</text>
  <text x="368" y="430" fill="#7a8399" font-size="9" font-family="'Geist Mono',monospace">Question-based content ideas</text>

  <!-- ═══ CONTENT/ ═══════════════════════════════════ -->
  <line x1="56" y1="472" x2="72" y2="472" stroke="#bfc0c0" stroke-width="1"/>
  <rect x="72" y="460" width="120" height="28" rx="4" fill="#e6f9e6" stroke="#27ae60" stroke-width="1"/>
  <text x="88" y="478" fill="#1a8a3e" font-size="10" font-weight="600">content/</text>

  <line x1="88" y1="488" x2="88" y2="520" stroke="#bfc0c0" stroke-width="1"/>

  <line x1="88" y1="504" x2="104" y2="504" stroke="#bfc0c0" stroke-width="1"/>
  <rect x="104" y="492" width="200" height="28" rx="4" fill="#ffffff" stroke="#bfc0c0" stroke-width="1"/>
  <text x="120" y="510" fill="#2d3142" font-size="10" font-weight="600">*.md</text>
  <rect x="312" y="492" width="80" height="28" rx="3" fill="#e6f9e6" stroke="#27ae60" stroke-width="1"/>
  <text x="352" y="510" fill="#1a8a3e" font-size="8" font-family="'Geist Mono',monospace" text-anchor="middle">blog-write</text>
  <text x="408" y="510" fill="#7a8399" font-size="9" font-family="'Geist Mono',monospace">Published blog posts</text>

  <!-- ═══ REPORTS/ ═══════════════════════════════════ -->
  <line x1="56" y1="528" x2="72" y2="528" stroke="#bfc0c0" stroke-width="1"/>
  <rect x="72" y="516" width="120" height="28" rx="4" fill="#fde8e0" stroke="#eb6c36" stroke-width="1"/>
  <text x="88" y="534" fill="#c0392b" font-size="10" font-weight="600">reports/</text>

  <line x1="88" y1="544" x2="88" y2="740" stroke="#bfc0c0" stroke-width="1"/>

  <line x1="88" y1="556" x2="104" y2="556" stroke="#bfc0c0" stroke-width="1"/>
  <rect x="104" y="544" width="200" height="28" rx="4" fill="#ffffff" stroke="#bfc0c0" stroke-width="1"/>
  <text x="120" y="562" fill="#2d3142" font-size="10" font-weight="600">audit-*-{date}.html</text>
  <rect x="312" y="544" width="64" height="28" rx="3" fill="#fde8e0" stroke="#eb6c36" stroke-width="1"/>
  <text x="344" y="562" fill="#c0392b" font-size="8" font-family="'Geist Mono',monospace" text-anchor="middle">reaudit</text>
  <text x="392" y="562" fill="#7a8399" font-size="9" font-family="'Geist Mono',monospace">Full audit report (interactive)</text>

  <line x1="88" y1="584" x2="104" y2="584" stroke="#bfc0c0" stroke-width="1"/>
  <rect x="104" y="572" width="200" height="28" rx="4" fill="#ffffff" stroke="#bfc0c0" stroke-width="1"/>
  <text x="120" y="590" fill="#2d3142" font-size="10" font-weight="600">audit-*-{date}.md</text>
  <rect x="312" y="572" width="64" height="28" rx="3" fill="#fde8e0" stroke="#eb6c36" stroke-width="1"/>
  <text x="344" y="590" fill="#c0392b" font-size="8" font-family="'Geist Mono',monospace" text-anchor="middle">reaudit</text>
  <text x="392" y="590" fill="#7a8399" font-size="9" font-family="'Geist Mono',monospace">Markdown summary</text>

  <line x1="88" y1="612" x2="104" y2="612" stroke="#bfc0c0" stroke-width="1"/>
  <rect x="104" y="600" width="200" height="28" rx="4" fill="#ffffff" stroke="#bfc0c0" stroke-width="1"/>
  <text x="120" y="618" fill="#2d3142" font-size="10" font-weight="600">technical-audit.md</text>
  <rect x="312" y="600" width="64" height="28" rx="3" fill="#fde8e0" stroke="#eb6c36" stroke-width="1"/>
  <text x="344" y="618" fill="#c0392b" font-size="8" font-family="'Geist Mono',monospace" text-anchor="middle">reaudit</text>
  <text x="392" y="618" fill="#7a8399" font-size="9" font-family="'Geist Mono',monospace">Technical SEO findings</text>

  <line x1="88" y1="640" x2="104" y2="640" stroke="#bfc0c0" stroke-width="1"/>
  <rect x="104" y="628" width="200" height="28" rx="4" fill="#ffffff" stroke="#bfc0c0" stroke-width="1"/>
  <text x="120" y="646" fill="#2d3142" font-size="10" font-weight="600">onpage-audit.md</text>
  <rect x="312" y="628" width="64" height="28" rx="3" fill="#fde8e0" stroke="#eb6c36" stroke-width="1"/>
  <text x="344" y="646" fill="#c0392b" font-size="8" font-family="'Geist Mono',monospace" text-anchor="middle">reaudit</text>
  <text x="392" y="646" fill="#7a8399" font-size="9" font-family="'Geist Mono',monospace">On-page SEO findings</text>

  <line x1="88" y1="668" x2="104" y2="668" stroke="#bfc0c0" stroke-width="1"/>
  <rect x="104" y="656" width="200" height="28" rx="4" fill="#ffffff" stroke="#bfc0c0" stroke-width="1"/>
  <text x="120" y="674" fill="#2d3142" font-size="10" font-weight="600">schema-audit.md</text>
  <rect x="312" y="656" width="64" height="28" rx="3" fill="#fde8e0" stroke="#eb6c36" stroke-width="1"/>
  <text x="344" y="674" fill="#c0392b" font-size="8" font-family="'Geist Mono',monospace" text-anchor="middle">reaudit</text>
  <text x="392" y="674" fill="#7a8399" font-size="9" font-family="'Geist Mono',monospace">Schema validation</text>

  <line x1="88" y1="696" x2="104" y2="696" stroke="#bfc0c0" stroke-width="1"/>
  <rect x="104" y="684" width="200" height="28" rx="4" fill="#ffffff" stroke="#bfc0c0" stroke-width="1"/>
  <text x="120" y="702" fill="#2d3142" font-size="10" font-weight="600">geo-audit.md</text>
  <rect x="312" y="684" width="64" height="28" rx="3" fill="#fde8e0" stroke="#eb6c36" stroke-width="1"/>
  <text x="344" y="702" fill="#c0392b" font-size="8" font-family="'Geist Mono',monospace" text-anchor="middle">reaudit</text>
  <text x="392" y="702" fill="#7a8399" font-size="9" font-family="'Geist Mono',monospace">GEO / AI citation readiness</text>

  <line x1="88" y1="724" x2="104" y2="724" stroke="#bfc0c0" stroke-width="1"/>
  <rect x="104" y="712" width="200" height="28" rx="4" fill="#ffffff" stroke="#bfc0c0" stroke-width="1"/>
  <text x="120" y="730" fill="#2d3142" font-size="10" font-weight="600">content-quality-audit.md</text>
  <rect x="312" y="712" width="64" height="28" rx="3" fill="#fde8e0" stroke="#eb6c36" stroke-width="1"/>
  <text x="344" y="730" fill="#c0392b" font-size="8" font-family="'Geist Mono',monospace" text-anchor="middle">reaudit</text>
  <text x="392" y="730" fill="#7a8399" font-size="9" font-family="'Geist Mono',monospace">Content quality + E-E-A-T</text>

  <!-- Legend -->
  <line x1="40" y1="760" x2="840" y2="760" stroke="#bfc0c0" stroke-width="1"/>
  <text x="40" y="780" fill="#4a69bd" font-size="9" font-family="'Geist Mono',monospace" font-weight="600" letter-spacing="0.1em">LEGEND</text>

  <rect x="140" y="770" width="12" height="12" rx="2" fill="#4a69bd" stroke="none"/>
  <text x="158" y="781" fill="#4a69bd" font-size="9" font-weight="600" font-family="'Geist Mono',monospace">init</text>

  <rect x="260" y="770" width="12" height="12" rx="2" fill="#27ae60" stroke="none"/>
  <text x="278" y="781" fill="#27ae60" font-size="9" font-weight="600" font-family="'Geist Mono',monospace">blog-write</text>

  <rect x="420" y="770" width="12" height="12" rx="2" fill="#eb6c36" stroke="none"/>
  <text x="438" y="781" fill="#c0392b" font-size="9" font-weight="600" font-family="'Geist Mono',monospace">audit / reaudit</text>
</svg>
