<svg xmlns="http://www.w3.org/2000/svg" viewBox="0 0 1200 600" font-family="system-ui, -apple-system, sans-serif">
  <defs>
    <linearGradient id="bg" x1="0%" y1="0%" x2="100%" y2="100%">
      <stop offset="0%" style="stop-color:#0f0f1a"/>
      <stop offset="100%" style="stop-color:#1a1a2e"/>
    </linearGradient>
  </defs>
  <rect width="1200" height="600" fill="url(#bg)" rx="12"/>

  <!-- Title -->
  <text x="600" y="40" text-anchor="middle" fill="#f5f5f5" font-size="22" font-weight="800">SEO Pilot — Workflow</text>
  <text x="600" y="60" text-anchor="middle" fill="#888" font-size="11">Parallel subagents · Multi-skill loading · Wave-based execution</text>

  <!-- INIT -->
  <rect x="30" y="80" width="1140" height="150" rx="8" fill="#12122a" stroke="#e74c3c" stroke-width="2"/>
  <text x="50" y="100" fill="#e74c3c" font-size="13" font-weight="700">/seo-pilot init</text>

  <!-- Wave 1 -->
  <rect x="50" y="110" width="250" height="100" rx="6" fill="#1a1a2e" stroke="#4a69bd" stroke-width="1" stroke-dasharray="4,2"/>
  <text x="175" y="125" text-anchor="middle" fill="#4a69bd" font-size="9" font-weight="600">WAVE 1 · PARALLEL</text>
  <rect x="60" y="132" width="110" height="22" rx="4" fill="rgba(74,105,189,0.15)"/>
  <text x="115" y="147" text-anchor="middle" fill="#7ec8e3" font-size="9">🔍 Scrape Site</text>
  <rect x="180" y="132" width="110" height="22" rx="4" fill="rgba(74,105,189,0.15)"/>
  <text x="235" y="147" text-anchor="middle" fill="#7ec8e3" font-size="9">🏆 Competitors</text>
  <rect x="60" y="160" width="110" height="22" rx="4" fill="rgba(74,105,189,0.15)"/>
  <text x="115" y="175" text-anchor="middle" fill="#7ec8e3" font-size="9">🔑 Keywords</text>
  <rect x="180" y="160" width="110" height="22" rx="4" fill="rgba(74,105,189,0.15)"/>
  <text x="235" y="175" text-anchor="middle" fill="#7ec8e3" font-size="9">💬 Questions</text>

  <!-- Arrow -->
  <text x="320" y="165" fill="#4a69bd" font-size="18">→</text>

  <!-- Wave 2 -->
  <rect x="345" y="110" width="250" height="100" rx="6" fill="#1a1a2e" stroke="#4a69bd" stroke-width="1" stroke-dasharray="4,2"/>
  <text x="470" y="125" text-anchor="middle" fill="#4a69bd" font-size="9" font-weight="600">WAVE 2 · PARALLEL</text>
  <rect x="355" y="132" width="230" height="22" rx="4" fill="rgba(74,105,189,0.15)"/>
  <text x="470" y="147" text-anchor="middle" fill="#7ec8e3" font-size="9">📊 SEO Strategy Report (HTML)</text>
  <rect x="355" y="160" width="230" height="22" rx="4" fill="rgba(74,105,189,0.15)"/>
  <text x="470" y="175" text-anchor="middle" fill="#7ec8e3" font-size="9">📈 3 SEO Diagrams (HTML)</text>

  <!-- Arrow -->
  <text x="615" y="165" fill="#4a69bd" font-size="18">→</text>

  <!-- Wave 3 -->
  <rect x="640" y="110" width="180" height="100" rx="6" fill="#1a1a2e" stroke="#27ae60" stroke-width="1"/>
  <text x="730" y="125" text-anchor="middle" fill="#27ae60" font-size="9" font-weight="600">WAVE 3 · SINGLE</text>
  <rect x="655" y="140" width="150" height="22" rx="4" fill="rgba(39,174,96,0.15)"/>
  <text x="730" y="155" text-anchor="middle" fill="#27ae60" font-size="9">⚙️ Config Files</text>

  <!-- Output -->
  <text x="860" y="145" fill="#f39c12" font-size="10" font-weight="600">OUTPUT:</text>
  <text x="860" y="162" fill="#aaa" font-size="9">seo-strategy.html</text>
  <text x="860" y="177" fill="#aaa" font-size="9">3 diagrams + research + config</text>
  <text x="860" y="192" fill="#aaa" font-size="9">Skills loaded: 12+</text>

  <!-- BLOG-WRITE -->
  <rect x="30" y="245" width="1140" height="140" rx="8" fill="#12122a" stroke="#27ae60" stroke-width="2"/>
  <text x="50" y="265" fill="#27ae60" font-size="13" font-weight="700">/seo-pilot blog-write &lt;topic&gt;</text>

  <rect x="50" y="275" width="170" height="95" rx="6" fill="#1a1a2e" stroke="#4a69bd" stroke-width="1" stroke-dasharray="4,2"/>
  <text x="135" y="290" text-anchor="middle" fill="#4a69bd" font-size="9" font-weight="600">W1 · PARALLEL</text>
  <rect x="60" y="298" width="150" height="20" rx="4" fill="rgba(74,105,189,0.15)"/>
  <text x="135" y="312" text-anchor="middle" fill="#7ec8e3" font-size="9">🔑 Keywords</text>
  <rect x="60" y="322" width="150" height="20" rx="4" fill="rgba(74,105,189,0.15)"/>
  <text x="135" y="336" text-anchor="middle" fill="#7ec8e3" font-size="9">💬 Discourse</text>

  <text x="235" y="330" fill="#4a69bd" font-size="16">→</text>

  <rect x="260" y="275" width="170" height="95" rx="6" fill="#1a1a2e" stroke="#f39c12" stroke-width="1"/>
  <text x="345" y="290" text-anchor="middle" fill="#f39c12" font-size="9" font-weight="600">W2 · SEQUENTIAL</text>
  <rect x="270" y="298" width="150" height="20" rx="4" fill="rgba(243,156,18,0.15)"/>
  <text x="345" y="312" text-anchor="middle" fill="#f39c12" font-size="9">📝 Brief</text>
  <rect x="270" y="322" width="150" height="20" rx="4" fill="rgba(243,156,18,0.15)"/>
  <text x="345" y="336" text-anchor="middle" fill="#f39c12" font-size="9">📋 Outline</text>

  <text x="445" y="330" fill="#4a69bd" font-size="16">→</text>

  <rect x="470" y="275" width="150" height="95" rx="6" fill="#1a1a2e" stroke="#f39c12" stroke-width="1"/>
  <text x="545" y="290" text-anchor="middle" fill="#f39c12" font-size="9" font-weight="600">W3 · SINGLE</text>
  <rect x="480" y="298" width="130" height="20" rx="4" fill="rgba(243,156,18,0.15)"/>
  <text x="545" y="312" text-anchor="middle" fill="#f39c12" font-size="9">✍️ Write Article</text>

  <text x="635" y="330" fill="#4a69bd" font-size="16">→</text>

  <rect x="660" y="275" width="180" height="95" rx="6" fill="#1a1a2e" stroke="#4a69bd" stroke-width="1" stroke-dasharray="4,2"/>
  <text x="750" y="290" text-anchor="middle" fill="#4a69bd" font-size="9" font-weight="600">W4 · PARALLEL</text>
  <rect x="670" y="298" width="160" height="20" rx="4" fill="rgba(74,105,189,0.15)"/>
  <text x="750" y="312" text-anchor="middle" fill="#7ec8e3" font-size="9">✅ SEO Check</text>
  <rect x="670" y="322" width="160" height="20" rx="4" fill="rgba(74,105,189,0.15)"/>
  <text x="750" y="336" text-anchor="middle" fill="#7ec8e3" font-size="9">🏷️ Schema</text>

  <text x="855" y="330" fill="#4a69bd" font-size="16">→</text>

  <rect x="880" y="275" width="150" height="95" rx="6" fill="#1a1a2e" stroke="#27ae60" stroke-width="1"/>
  <text x="955" y="290" text-anchor="middle" fill="#27ae60" font-size="9" font-weight="600">W5 · PUBLISH</text>
  <rect x="890" y="298" width="130" height="20" rx="4" fill="rgba(39,174,96,0.15)"/>
  <text x="955" y="312" text-anchor="middle" fill="#27ae60" font-size="9">🚀 Assemble + Save</text>

  <text x="1060" y="295" fill="#f39c12" font-size="10" font-weight="600">OUTPUT:</text>
  <text x="1060" y="312" fill="#aaa" font-size="9">content/</text>
  <text x="1060" y="327" fill="#aaa" font-size="9">+ schema + SEO fixes</text>
  <text x="1060" y="342" fill="#aaa" font-size="9">Skills loaded: 15+</text>

  <!-- AUDIT -->
  <rect x="30" y="400" width="1140" height="180" rx="8" fill="#12122a" stroke="#3498db" stroke-width="2"/>
  <text x="50" y="420" fill="#3498db" font-size="13" font-weight="700">/seo-pilot audit &lt;url&gt;</text>

  <rect x="50" y="430" width="850" height="130" rx="6" fill="#1a1a2e" stroke="#4a69bd" stroke-width="1" stroke-dasharray="4,2"/>
  <text x="475" y="445" text-anchor="middle" fill="#4a69bd" font-size="9" font-weight="600">WAVE 1 · 5 PARALLEL AUDITS</text>
  <rect x="60" y="455" width="155" height="25" rx="4" fill="rgba(74,105,189,0.15)"/>
  <text x="137" y="472" text-anchor="middle" fill="#7ec8e3" font-size="9">⚙️ Technical SEO</text>
  <rect x="225" y="455" width="155" height="25" rx="4" fill="rgba(74,105,189,0.15)"/>
  <text x="302" y="472" text-anchor="middle" fill="#7ec8e3" font-size="9">📄 On-Page SEO</text>
  <rect x="390" y="455" width="155" height="25" rx="4" fill="rgba(74,105,189,0.15)"/>
  <text x="467" y="472" text-anchor="middle" fill="#7ec8e3" font-size="9">🏷️ Schema Check</text>
  <rect x="555" y="455" width="155" height="25" rx="4" fill="rgba(74,105,189,0.15)"/>
  <text x="632" y="472" text-anchor="middle" fill="#7ec8e3" font-size="9">🤖 GEO / AI Audit</text>
  <rect x="720" y="455" width="155" height="25" rx="4" fill="rgba(74,105,189,0.15)"/>
  <text x="797" y="472" text-anchor="middle" fill="#7ec8e3" font-size="9">📝 Content Quality</text>
  <text x="475" y="505" text-anchor="middle" fill="#888" font-size="8">Skills: seo-technical, seo-performance, seo-content, seo-page, seo-schema, seo-geo, seo-flow, blog-analyze, blog-schema</text>

  <text x="920" y="500" fill="#4a69bd" font-size="18">→</text>

  <rect x="950" y="430" width="200" height="130" rx="6" fill="#1a1a2e" stroke="#27ae60" stroke-width="1"/>
  <text x="1050" y="445" text-anchor="middle" fill="#27ae60" font-size="9" font-weight="600">WAVE 2 · MERGE</text>
  <rect x="965" y="455" width="170" height="25" rx="4" fill="rgba(39,174,96,0.15)"/>
  <text x="1050" y="472" text-anchor="middle" fill="#27ae60" font-size="9">📊 Combined Report</text>
  <text x="1050" y="500" text-anchor="middle" fill="#f39c12" font-size="9" font-weight="600">Priority:</text>
  <text x="1050" y="515" text-anchor="middle" fill="#e74c3c" font-size="8">Critical → High → Medium → Low</text>
  <text x="1050" y="535" text-anchor="middle" fill="#aaa" font-size="8">reports/audit-domain-date.md</text>
  <text x="1050" y="550" text-anchor="middle" fill="#aaa" font-size="8">Skills loaded: 10+</text>

</svg>
